<?xml version="1.0" standalone="no"?>
<!DOCTYPE svg PUBLIC "-//W3C//DTD SVG 20010904//EN"
 "http://www.w3.org/TR/2001/REC-SVG-20010904/DTD/svg10.dtd">
<svg version="1.0" xmlns="http://www.w3.org/2000/svg"
 width="512.000000pt" height="512.000000pt" viewBox="0 0 512.000000 512.000000"
 preserveAspectRatio="xMidYMid meet">

<g transform="translate(0.000000,512.000000) scale(0.100000,-0.100000)"
fill="#000000" stroke="none">
<path d="M2956 4900 c-195 -62 -316 -261 -276 -455 43 -213 240 -354 452 -325
247 34 405 295 322 533 -69 197 -298 311 -498 247z"/>
<path d="M1235 4325 c-29 -28 -29 -31 -7 -150 l17 -90 80 -42 c44 -23 81 -38
83 -34 2 5 -9 73 -23 152 -22 123 -30 147 -51 167 -33 29 -69 28 -99 -3z"/>
<path d="M314 4286 c-29 -29 -34 -41 -34 -79 0 -33 6 -53 24 -74 15 -17 117
-75 270 -153 135 -69 246 -129 246 -134 0 -4 -106 -197 -235 -427 l-235 -419
0 -1140 0 -1139 -173 -177 -172 -177 0 -48 c0 -42 5 -53 33 -81 28 -28 39 -33
82 -33 l50 0 148 148 147 147 135 -136 c74 -74 147 -142 162 -150 101 -53 208
61 154 164 -8 15 -85 97 -170 182 l-156 155 0 1113 0 1114 217 386 c119 213
221 393 228 400 10 11 51 -6 224 -92 245 -123 270 -129 327 -72 29 29 34 41
34 80 0 36 -6 52 -27 75 -18 18 -237 135 -595 315 -634 320 -621 315 -684 252z"/>
<path d="M2540 3979 c-63 -10 -159 -55 -211 -98 -20 -17 -105 -125 -190 -240
-85 -116 -158 -211 -163 -211 -5 0 -52 32 -103 71 -52 39 -96 69 -98 67 -1 -2
-12 -21 -23 -44 -11 -22 -38 -58 -60 -80 l-40 -39 18 -95 c11 -52 19 -109 19
-127 1 -28 12 -39 110 -111 137 -101 159 -112 218 -112 99 0 116 17 338 316
l200 272 3 -519 2 -519 88 44 c100 51 228 93 308 102 43 5 54 10 49 22 -34 90
-30 187 12 273 l28 56 -204 318 c-188 291 -205 321 -209 368 -12 154 175 248
286 144 13 -12 116 -165 229 -339 113 -175 209 -318 213 -318 5 0 71 24 147
54 l138 55 5 133 5 132 112 -157 112 -157 -32 -13 c-17 -7 -169 -67 -337 -133
-258 -101 -310 -125 -342 -156 -118 -117 -32 -327 135 -328 26 0 153 45 395
141 196 77 403 158 459 180 55 22 116 50 134 62 72 48 103 136 76 213 -17 52
-394 581 -464 652 -63 63 -151 107 -243 121 -80 12 -1044 12 -1120 0z"/>
<path d="M2752 3757 c-12 -13 -22 -35 -22 -49 0 -16 70 -134 192 -324 105
-165 193 -301 194 -303 6 -7 134 52 134 62 0 18 -392 617 -411 627 -30 17 -64
11 -87 -13z"/>
<path d="M1376 3383 c2 -10 13 -67 24 -128 22 -119 38 -145 89 -145 68 0 83
41 60 166 -17 95 -16 94 -60 94 -22 0 -56 7 -76 15 -44 18 -42 19 -37 -2z"/>
<path d="M929 2801 c-23 -23 -29 -38 -29 -71 0 -33 6 -48 29 -71 16 -16 39
-29 50 -29 21 0 21 -3 21 -263 l0 -263 -35 -13 c-67 -24 -86 -108 -36 -163
l29 -33 226 -3 226 -3 0 -582 0 -582 -171 -177 c-136 -141 -171 -184 -176
-211 -12 -77 58 -146 135 -133 30 4 62 31 182 151 l145 145 135 -136 c74 -74
147 -142 162 -150 101 -53 208 61 154 164 -8 15 -85 97 -170 182 l-156 155 0
587 0 588 204 0 c113 0 216 4 229 9 43 17 67 51 67 97 0 50 -28 90 -70 99
l-30 7 0 264 c0 261 0 264 21 264 11 0 34 13 50 29 41 41 41 101 0 142 l-29
29 -567 0 -567 0 -29 -29z"/>
<path d="M4075 2759 c-93 -38 -176 -71 -184 -74 -19 -7 23 -53 53 -57 20 -3
21 -9 24 -148 l3 -145 55 -65 c72 -84 147 -205 186 -302 l32 -78 63 0 63 0 0
-587 0 -587 -170 -172 -170 -171 0 -49 c0 -56 17 -87 60 -109 36 -19 73 -19
108 -1 15 8 88 76 162 150 l135 136 147 -147 148 -148 51 0 c44 0 54 4 80 32
33 38 44 72 34 111 -4 17 -71 92 -176 197 l-169 171 0 587 0 587 213 0 c194 0
215 2 245 20 34 21 52 54 52 97 0 28 -58 93 -84 93 -14 0 -16 29 -16 264 l0
264 30 5 c53 11 85 88 59 140 -30 58 -18 57 -459 56 l-405 -1 -170 -69z"/>
<path d="M2960 2505 c-197 -40 -367 -131 -511 -274 -212 -212 -314 -493 -288
-796 25 -295 188 -571 436 -736 l51 -35 -99 -153 c-76 -118 -99 -162 -99 -188
0 -99 100 -155 179 -101 19 14 75 89 136 183 57 88 108 159 114 158 160 -37
332 -42 471 -13 52 11 100 20 107 20 6 0 60 -75 119 -166 108 -167 143 -204
192 -204 38 0 92 30 107 61 31 59 22 86 -89 257 l-105 161 62 44 c81 58 187
170 247 263 220 336 210 789 -25 1119 -60 85 -196 212 -289 270 -43 27 -118
64 -165 81 -79 31 -92 33 -166 27 -66 -4 -91 -1 -142 16 -71 24 -145 26 -243
6z m174 -507 c14 -6 28 -19 31 -28 3 -9 1 -68 -5 -131 -16 -184 -21 -169 55
-169 35 0 76 -5 90 -12 30 -14 55 -55 55 -93 0 -33 -194 -466 -214 -477 -10
-5 -24 -4 -37 2 -19 11 -20 18 -15 88 3 43 9 116 12 163 l6 87 -77 4 c-72 3
-79 6 -106 36 -20 22 -29 43 -29 66 0 44 154 447 177 463 21 16 26 16 57 1z"/>
</g>
</svg>
